<svg width="34" height="33" viewBox="0 0 34 33" fill="none" xmlns="http://www.w3.org/2000/svg">
<path d="M19.4508 28.875C19.2018 29.2917 18.8443 29.6376 18.4142 29.8781C17.984 30.1186 17.4964 30.2451 17 30.2451C16.5036 30.2451 16.016 30.1186 15.5858 29.8781C15.1557 29.6376 14.7982 29.2917 14.5492 28.875M25.5 11C25.5 8.81196 24.6045 6.71354 23.0104 5.16637C21.4163 3.61919 19.2543 2.75 17 2.75C14.7457 2.75 12.5837 3.61919 10.9896 5.16637C9.39553 6.71354 8.5 8.81196 8.5 11C8.5 20.625 4.25 23.375 4.25 23.375H29.75C29.75 23.375 25.5 20.625 25.5 11Z" stroke="#1E1E1E" stroke-width="4" stroke-linecap="round" stroke-linejoin="round"/>
</svg>
